Fly_normalized_Motion_pl03
version=1
nRows=8
nColumns=43
inDegrees=yes
endheader
time		pelvis_tilt		pelvis_list		pelvis_rotation		pelvis_tx		pelvis_ty		pelvis_tz		hip_flexion_r		hip_adduction_r		hip_rotation_r		knee_angle_r		ankle_angle_r		subtalar_angle_r		mtp_angle_r		hip_flexion_l		hip_adduction_l		hip_rotation_l		knee_angle_l		ankle_angle_l		subtalar_angle_l		mtp_angle_l		lumbar_extension		lumbar_bending		lumbar_rotation		neck_flexion		neck_lateral_bending		neck_rotation		arm_flex_r		arm_add_r		arm_rot_r		elbow_flex_r		pro_sup_r		wrist_flex_r		wrist_dev_r		hand_finger_flex_r		arm_flex_l		arm_add_l		arm_rot_l		elbow_flex_l		pro_sup_l		wrist_flex_l		wrist_dev_l		hand_finger_flex_l		
2.747500		5.865973		-13.101313		93.292215		-0.028417		1.618046		1.109613		66.380259		-6.007627		-9.905123		-82.225137		-9.029327		6.164226		32.679511		55.342466		-12.638121		1.321035		-85.975608		-2.776311		-3.628614		17.637544		-29.459067		3.762593		4.521184		0.277861		6.153793		-4.123643		47.643446		-28.153175		8.109740		61.752386		116.309657		4.444077		-2.749643		-31.032796		54.986303		-32.057267		19.260641		66.538543		128.517006		-5.088947		-0.252948		-17.193201		
2.751515		5.926931		-12.983879		93.484820		-0.028596		1.613661		1.101585		65.617018		-6.014888		-10.182464		-80.454003		-9.583374		6.326795		32.664780		55.002901		-12.408116		1.203887		-83.998853		-3.474669		-3.558956		17.515396		-29.353374		3.916461		4.581496		0.047702		6.136922		-4.339373		45.398686		-28.916329		7.588893		61.857856		116.586605		4.850797		-2.103232		-31.263516		53.034403		-33.416438		19.513656		67.324997		128.313430		-4.238195		0.100769		-17.032990		
2.755530		5.965203		-12.864907		93.632914		-0.028749		1.609101		1.093516		64.838898		-5.992168		-10.419978		-78.653145		-10.114525		6.466647		32.646796		54.597531		-12.202449		1.038339		-81.979745		-4.164795		-3.464684		17.406340		-29.225748		4.041361		4.672896		-0.229796		6.066661		-4.532773		43.181655		-29.664832		7.077403		61.851577		116.881261		5.328991		-1.520251		-31.445687		51.037275		-34.724540		19.711427		68.043813		128.136019		-3.493802		0.381123		-16.864429		
2.759545		5.983788		-12.709770		93.733683		-0.028872		1.604250		1.085268		64.005331		-5.939342		-10.627768		-76.850209		-10.718630		6.633569		32.631186		54.122607		-12.055375		0.808030		-80.001007		-4.911326		-3.324548		17.318124		-29.079956		4.141612		4.789396		-0.748508		5.955546		-4.739054		40.885074		-30.431821		6.579334		61.836821		117.133004		5.772096		-1.097788		-31.548204		48.933049		-36.037733		19.869929		68.752599		128.085047		-2.974570		0.558135		-16.708170		
2.763561		6.122781		-12.326022		93.728732		-0.028836		1.599727		1.076789		62.843120		-5.649804		-10.839650		-74.906238		-11.388420		6.478970		32.557643		53.386713		-12.191202		0.491854		-78.014134		-5.997384		-3.463906		17.213940		-29.330534		4.363240		5.027070		-0.490333		5.505055		-5.019772		38.475740		-30.804313		4.945065		62.410225		118.493337		7.722832		0.141450		-32.000982		46.265622		-37.253527		18.954382		70.281532		128.286674		-1.534352		1.799146		-16.454317		
2.767576		6.108674		-12.254398		93.819964		-0.029100		1.594466		1.068490		62.084176		-5.607491		-10.990994		-73.041302		-11.768120		6.713145		32.543434		52.882280		-11.996412		0.215531		-75.927758		-6.528680		-3.261378		17.163937		-29.020934		4.445082		5.173788		-1.212850		5.436055		-5.118041		36.234749		-31.735416		4.825329		62.124910		118.723219		8.126771		0.303132		-32.101649		44.238435		-38.441243		19.318628		70.694630		128.443964		-1.265323		1.770311		-16.426762		
2.771591		6.134168		-11.911661		93.768153		-0.029117		1.588917		1.059509		60.983129		-5.385540		-11.146754		-71.237305		-12.552120		6.816835		32.518737		52.178100		-12.117227		-0.242081		-74.156063		-7.678185		-3.141014		17.070631		-28.963467		4.530085		5.370166		-2.259244		5.216780		-5.385086		33.509795		-32.471184		4.082077		62.501983		119.121684		8.710853		0.521831		-32.298974		41.640450		-39.853587		19.120655		71.728331		128.802964		-1.034936		1.994834		-16.431228		
2.775606		6.171845		-11.623547		93.722700		-0.029155		1.583461		1.050688		59.921661		-5.124316		-11.265544		-69.338417		-13.064441		6.778970		32.491757		51.430664		-12.182849		-0.693648		-72.196580		-8.677597		-3.167443		16.972741		-28.913337		4.626726		5.591034		-2.900761		4.963690		-5.570192		30.930135		-33.206111		3.390349		62.745345		119.634347		9.385378		0.862022		-32.474676		39.065833		-41.140296		18.871092		72.688821		129.222487		-0.716375		2.282965		-16.402816		
